<svg width="46" height="46" viewBox="0 0 46 46" fill="none" xmlns="http://www.w3.org/2000/svg">
<rect x="1.61719" y="1.52881" width="42.7644" height="42.7644" rx="9" fill="#647C87" stroke="#C1E7F2" stroke-width="2"/>
<path d="M22.9989 25.0169C24.5041 25.0169 25.8664 24.3976 26.8528 23.3968C27.8381 22.3971 28.4485 21.0147 28.4485 19.4875C28.4485 17.9603 27.8381 16.578 26.8528 15.5782C25.8664 14.5774 24.5041 13.9581 22.9989 13.9581C21.4937 13.9581 20.1313 14.5774 19.1449 15.5782C18.1596 16.578 17.5493 17.9603 17.5493 19.4875C17.5493 21.0147 18.1596 22.3971 19.1449 23.3968C19.6504 23.9112 20.2512 24.3191 20.9126 24.5971C21.5739 24.8751 22.283 25.0178 22.9989 25.0169ZM31.7182 26.1228C32.0762 26.1235 32.4309 26.0525 32.7618 25.9138C33.0927 25.7752 33.3934 25.5715 33.6465 25.3147C33.8997 25.0578 34.1004 24.7527 34.237 24.417C34.3737 24.0812 34.4437 23.7214 34.443 23.3581C34.443 22.595 34.1389 21.9039 33.6452 21.4029C33.3924 21.1458 33.092 20.9419 32.7613 20.803C32.4306 20.6641 32.0761 20.5929 31.7182 20.5934C31.3602 20.5927 31.0055 20.6637 30.6746 20.8024C30.3437 20.941 30.043 21.1447 29.7899 21.4015C29.5367 21.6584 29.336 21.9635 29.1994 22.2992C29.0627 22.635 28.9927 22.9948 28.9934 23.3581C28.9928 23.7213 29.0629 24.0811 29.1997 24.4168C29.3364 24.7525 29.5371 25.0575 29.7902 25.3143C30.0433 25.5712 30.3439 25.7748 30.6748 25.9135C31.0056 26.0523 31.3602 26.1234 31.7182 26.1228ZM31.7182 26.7753C30.2675 26.7753 29.1765 27.2243 28.5389 27.8458C27.3237 26.8317 25.4021 26.1228 22.9989 26.1228C20.5291 26.1228 18.6447 26.8394 17.449 27.8524C16.7994 27.2276 15.6964 26.7753 14.2795 26.7753C11.8948 26.7753 10.4648 27.9807 10.4648 29.1883C10.4648 29.791 11.8948 30.3959 14.2795 30.3959C14.9379 30.3959 15.5286 30.3395 16.0485 30.2488L16.0049 30.5474C16.0049 31.6533 18.6272 32.7592 22.9989 32.7592C27.0991 32.7592 29.9929 31.6533 29.9929 30.5474L29.9711 30.2654C30.4757 30.3461 31.0555 30.3959 31.7182 30.3959C33.9536 30.3959 35.5329 29.791 35.5329 29.1883C35.5329 27.9807 34.0365 26.7753 31.7182 26.7753ZM14.2795 26.1228C15.0316 26.1228 15.7128 25.8143 16.2065 25.3133C16.4599 25.0568 16.6608 24.752 16.7978 24.4165C16.9347 24.081 17.0049 23.7213 17.0043 23.3581C17.0051 22.9948 16.9351 22.635 16.7984 22.2992C16.6617 21.9635 16.461 21.6584 16.2079 21.4015C15.9547 21.1447 15.654 20.941 15.3231 20.8024C14.9922 20.6637 14.6376 20.5927 14.2795 20.5934C13.9216 20.5928 13.567 20.6639 13.2361 20.8027C12.9053 20.9414 12.6047 21.145 12.3516 21.4019C12.0984 21.6587 11.8977 21.9637 11.761 22.2994C11.6243 22.6351 11.5542 22.9949 11.5548 23.3581C11.554 23.7214 11.624 24.0812 11.7607 24.417C11.8974 24.7527 12.0981 25.0578 12.3512 25.3147C12.6044 25.5715 12.9051 25.7752 13.236 25.9138C13.5669 26.0525 13.9215 26.1235 14.2795 26.1228Z" fill="#C1E7F2"/>
</svg>
