<svg width="31" height="31" viewBox="0 0 31 31" fill="none" xmlns="http://www.w3.org/2000/svg">
<path d="M15.5 29C18.17 29 20.7801 28.2082 23.0002 26.7248C25.2203 25.2414 26.9506 23.133 27.9724 20.6662C28.9941 18.1994 29.2615 15.485 28.7406 12.8663C28.2197 10.2475 26.9339 7.84207 25.0459 5.95406C23.1579 4.06605 20.7525 2.78031 18.1337 2.2594C15.515 1.7385 12.8006 2.00585 10.3338 3.02763C7.86697 4.04941 5.75856 5.77974 4.27516 7.99981C2.79176 10.2199 2 12.83 2 15.5C2 17.732 2.54 19.8365 3.5 21.6905L2 29L9.3095 27.5C11.1635 28.46 13.2695 29 15.5 29Z" stroke="#647C87" stroke-width="2.5" stroke-linecap="round" stroke-linejoin="round"/>
</svg>
