<svg width="46" height="46" viewBox="0 0 46 46" fill="none" xmlns="http://www.w3.org/2000/svg">
<rect x="1.61719" y="1.29321" width="42.7644" height="42.7644" rx="9" fill="#647C87" stroke="#C1E7F2" stroke-width="2"/>
<path d="M29.7411 14.0806H28.6483V11.9319H26.4626V14.0806H17.72V11.9319H15.5343V14.0806H14.4415C13.8618 14.0806 13.3059 14.307 12.896 14.71C12.4861 15.1129 12.2559 15.6595 12.2559 16.2293V31.2702C12.2559 31.84 12.4861 32.3866 12.896 32.7895C13.3059 33.1925 13.8618 33.4189 14.4415 33.4189H19.9057V31.2702H14.4415V19.4524H29.7411V20.5267H31.9268V16.2293C31.9268 15.6595 31.6965 15.1129 31.2866 14.71C30.8767 14.307 30.3208 14.0806 29.7411 14.0806ZM32.6918 25.2001L31.5989 26.2745L29.3586 24.1258L30.4515 23.0514C30.67 22.8258 31.0416 22.8151 31.2929 23.0514L32.6918 24.4266C32.8994 24.6415 32.8994 24.9852 32.6918 25.2001ZM22.0913 31.2057L28.7248 24.6952L30.9651 26.8439L24.3425 33.4189H22.0913V31.2057Z" fill="#C1E7F2"/>
</svg>
