<svg width="46" height="46" viewBox="0 0 46 46" fill="none" xmlns="http://www.w3.org/2000/svg">
<rect x="1.61719" y="1.7644" width="42.7644" height="42.7644" rx="9" fill="#647C87" stroke="#C1E7F2" stroke-width="2"/>
<path d="M22.5524 22.3632C21.8698 22.3632 21.3214 22.9116 21.3214 23.5942C21.3214 24.2769 21.8698 24.8253 22.5524 24.8253C23.2351 24.8253 23.7834 24.2769 23.7834 23.5942C23.7834 22.9116 23.2351 22.3632 22.5524 22.3632ZM22.5524 12.4031C16.3749 12.4031 11.3613 17.4167 11.3613 23.5942C11.3613 29.7717 16.3749 34.7853 22.5524 34.7853C28.7299 34.7853 33.7435 29.7717 33.7435 23.5942C33.7435 17.4167 28.7299 12.4031 22.5524 12.4031ZM25.0033 26.0451L15.8378 30.3089L20.1016 21.1434L29.2671 16.8796L25.0033 26.0451Z" fill="#C1E7F2"/>
</svg>
