<svg width="46" height="45" viewBox="0 0 46 45" fill="none" xmlns="http://www.w3.org/2000/svg">
<rect x="1.61719" y="1" width="42.7644" height="42.7644" rx="9" fill="#647C87" stroke="#C1E7F2" stroke-width="2"/>
<path d="M20.2711 32.6771V25.9577H25.7206V32.6771C25.7206 33.4162 26.3337 34.0209 27.083 34.0209H31.1702C31.9195 34.0209 32.5325 33.4162 32.5325 32.6771V23.2699H34.8486C35.4753 23.2699 35.775 22.5039 35.2982 22.1008L23.9086 11.9814C23.3909 11.5245 22.6008 11.5245 22.0831 11.9814L10.6935 22.1008C10.2303 22.5039 10.5164 23.2699 11.1431 23.2699H13.4592V32.6771C13.4592 33.4162 14.0722 34.0209 14.8215 34.0209H18.9087C19.658 34.0209 20.2711 33.4162 20.2711 32.6771Z" fill="#C1E7F2"/>
</svg>
