<svg width="30" height="28" viewBox="0 0 30 28" fill="none" xmlns="http://www.w3.org/2000/svg">
<path d="M5.45455 11.2V28H0V11.2H5.45455ZM10.9091 28C10.1858 28 9.49208 27.705 8.98062 27.1799C8.46915 26.6548 8.18182 25.9426 8.18182 25.2V11.2C8.18182 10.43 8.48182 9.73 8.98636 9.226L17.9591 0L19.4045 1.484C19.7727 1.862 20.0045 2.38 20.0045 2.954L19.9636 3.402L18.6682 9.8H27.2727C27.996 9.8 28.6897 10.095 29.2012 10.6201C29.7127 11.1452 30 11.8574 30 12.6V15.4C30 15.764 29.9318 16.1 29.8091 16.422L25.6909 26.292C25.2818 27.3 24.3136 28 23.1818 28H10.9091ZM10.9091 25.2H23.2227L27.2727 15.4V12.6H15.2864L16.8273 5.152L10.9091 11.242V25.2Z" fill="#647C87"/>
</svg>
