<svg width="143" height="143" viewBox="0 0 143 143" fill="none" xmlns="http://www.w3.org/2000/svg">
<path d="M95.125 142.375L47.875 125.837L11.2562 140.013C8.63125 141.063 6.20312 140.766 3.97187 139.123C1.74062 137.479 0.625 135.282 0.625 132.531V22.2812C0.625 20.575 1.1185 19.0656 2.1055 17.7531C3.0925 16.4406 4.4365 15.4563 6.1375 14.8L47.875 0.625L95.125 17.1625L131.744 2.9875C134.369 1.9375 136.797 2.23413 139.028 3.87738C141.259 5.52063 142.375 7.71775 142.375 10.4688V120.719C142.375 122.425 141.882 123.934 140.895 125.247C139.908 126.559 138.563 127.544 136.862 128.2L95.125 142.375ZM87.25 123.081V30.9437L55.75 19.9187V112.056L87.25 123.081ZM103 123.081L126.625 115.206V21.8875L103 30.9437V123.081ZM16.375 121.112L40 112.056V19.9187L16.375 27.7937V121.112Z" fill="black"/>
</svg>
