<svg width="29" height="7" viewBox="0 0 29 7" fill="none" xmlns="http://www.w3.org/2000/svg">
<path d="M1 3.5C1 4.16304 1.26339 4.79893 1.73223 5.26777C2.20107 5.73661 2.83696 6 3.5 6C4.16304 6 4.79893 5.73661 5.26777 5.26777C5.73661 4.79893 6 4.16304 6 3.5C6 2.83696 5.73661 2.20107 5.26777 1.73223C4.79893 1.26339 4.16304 1 3.5 1C2.83696 1 2.20107 1.26339 1.73223 1.73223C1.26339 2.20107 1 2.83696 1 3.5ZM11.5 3.5C11.5 4.16304 11.7634 4.79893 12.2322 5.26777C12.7011 5.73661 13.337 6 14 6C14.663 6 15.2989 5.73661 15.7678 5.26777C16.2366 4.79893 16.5 4.16304 16.5 3.5C16.5 2.83696 16.2366 2.20107 15.7678 1.73223C15.2989 1.26339 14.663 1 14 1C13.337 1 12.7011 1.26339 12.2322 1.73223C11.7634 2.20107 11.5 2.83696 11.5 3.5ZM23 3.5C23 4.16304 23.2634 4.79893 23.7322 5.26777C24.2011 5.73661 24.837 6 25.5 6C26.163 6 26.7989 5.73661 27.2678 5.26777C27.7366 4.79893 28 4.16304 28 3.5C28 2.83696 27.7366 2.20107 27.2678 1.73223C26.7989 1.26339 26.163 1 25.5 1C24.837 1 24.2011 1.26339 23.7322 1.73223C23.2634 2.20107 23 2.83696 23 3.5Z" stroke="#647C87" stroke-width="2" stroke-linecap="round" stroke-linejoin="round"/>
</svg>
