<svg width="45" height="45" viewBox="0 0 45 45" fill="none" xmlns="http://www.w3.org/2000/svg">
<rect x="1" y="1" width="42.7644" height="42.7644" rx="21.3822" fill="#647C87" stroke="#C1E7F2" stroke-width="2"/>
<path d="M31 29V30H13V29L15 27V21C15 17.9 17.03 15.17 20 14.29V14C20 13.4696 20.2107 12.9609 20.5858 12.5858C20.9609 12.2107 21.4696 12 22 12C22.5304 12 23.0391 12.2107 23.4142 12.5858C23.7893 12.9609 24 13.4696 24 14V14.29C26.97 15.17 29 17.9 29 21V27L31 29ZM24 31C24 31.5304 23.7893 32.0391 23.4142 32.4142C23.0391 32.7893 22.5304 33 22 33C21.4696 33 20.9609 32.7893 20.5858 32.4142C20.2107 32.0391 20 31.5304 20 31" fill="#C1E7F2"/>
</svg>
