<svg width="46" height="45" viewBox="0 0 46 45" fill="none" xmlns="http://www.w3.org/2000/svg">
<rect x="1.76367" y="1" width="42.7644" height="42.7644" rx="21.3822" fill="#647C87" stroke="#C1E7F2" stroke-width="2"/>
<path d="M24.2351 32.685C23.4684 32.895 22.5922 33 21.7161 33C15.6922 33 10.7637 28.275 10.7637 22.5C10.7637 16.725 15.6922 12 21.7161 12C23.1399 12 24.5637 12.315 25.878 12.735L24.1256 14.415C23.3589 14.205 22.5922 14.1 21.7161 14.1C16.897 14.1 12.9541 17.88 12.9541 22.5C12.9541 27.12 16.897 30.9 21.7161 30.9C22.1541 30.9 22.7018 30.9 23.1399 30.795C23.3589 31.53 23.797 32.16 24.2351 32.685ZM17.2256 20.505L15.6922 21.975L20.6208 26.7L31.5732 16.2L30.0399 14.73L20.6208 23.76L17.2256 20.505ZM25.0018 27.75V29.85H33.7637V27.75H25.0018Z" fill="#C1E7F2"/>
</svg>
